<svg xmlns="http://www.w3.org/2000/svg" height="16" width="16" xmlns:xlink="http://www.w3.org/1999/xlink"><defs><linearGradient id="b"><stop stop-color="#116597" offset="0"/><stop stop-color="#062638" offset="1"/></linearGradient><linearGradient id="a"><stop stop-color="#fffe99" offset="0"/><stop stop-color="#e49218" offset=".2"/><stop stop-color="#116597" offset="1"/></linearGradient><radialGradient id="c" xlink:href="#a" gradientUnits="userSpaceOnUse" cy="17.413" cx="11.75" gradientTransform="matrix(.41233 0 0 1.1548 3.24 -8.74)" r="10.752"/><linearGradient id="h" y2="-.242" xlink:href="#a" gradientUnits="userSpaceOnUse" x2="7.763" gradientTransform="translate(2.495 -6.342) scale(.6787)" y1="4.218" x1="8.101"/><linearGradient id="i" y2="-.242" xlink:href="#a" gradientUnits="userSpaceOnUse" x2="7.763" gradientTransform="translate(2.495 -1.882) scale(.6787)" y1="4.218" x1="8.101"/><linearGradient id="g" y2="-.242" xlink:href="#b" gradientUnits="userSpaceOnUse" x2="7.763" gradientTransform="translate(7.08 4.18) scale(.43866)" y1="4.218" x1="8.101"/><linearGradient id="f" y2="-.242" xlink:href="#b" gradientUnits="userSpaceOnUse" x2="7.763" gradientTransform="translate(7.657 1.298) scale(.43866)" y1="4.218" x1="8.101"/><linearGradient id="e" y2="-.242" xlink:href="#b" gradientUnits="userSpaceOnUse" x2="7.763" gradientTransform="translate(1.851 4.18) scale(.43866)" y1="4.218" x1="8.101"/><linearGradient id="d" y2="-.242" xlink:href="#b" gradientUnits="userSpaceOnUse" x2="7.763" gradientTransform="translate(1.851 1.298) scale(.43866)" y1="4.218" x1="8.101"/></defs><g stroke="#072739"><g stroke-width=".646"><path d="M4.561 7.134v1.515H1.996v.262l2.949 3.333 2.666 3.05h.99l2.686-3.05 2.848-3.252V8.65h-2.727V7.134H4.561z" fill="url(#c)"/><g stroke-linecap="round" stroke-dashoffset="10" fill-rule="evenodd"><path fill="url(#d)" d="M4.562 1.346h1.649v1.649H4.562z"/><path fill="url(#e)" d="M4.562 4.228h1.649v1.649H4.562z"/><path fill="url(#f)" d="M10.368 1.346h1.649v1.649h-1.649z"/><path fill="url(#g)" d="M9.792 4.228h1.649v1.649H9.792z"/></g></g><g fill-rule="evenodd" stroke-linecap="round" stroke-dashoffset="10"><path fill="url(#h)" d="M6.689-6.268H9.24v2.551H6.689z" transform="translate(2.874 4.614) scale(.64633)"/><path fill="url(#i)" d="M6.689-1.808H9.24V.743H6.689z" transform="translate(2.874 4.614) scale(.64633)"/></g></g></svg>