<svg xmlns="http://www.w3.org/2000/svg" xmlns:xlink="http://www.w3.org/1999/xlink" height="48" width="48"><defs><linearGradient id="a"><stop offset="0"/><stop offset="1" stop-opacity="0"/></linearGradient><linearGradient id="b"><stop offset="0" stop-opacity="0"/><stop offset=".5"/><stop offset="1" stop-opacity="0"/></linearGradient><linearGradient id="c"><stop offset="0" stop-color="#686868" stop-opacity="0"/><stop offset=".238" stop-color="#686868"/><stop offset=".781" stop-color="#686868"/><stop offset="1" stop-color="#686868" stop-opacity="0"/></linearGradient><linearGradient id="d"><stop offset="0" stop-color="#474747" stop-opacity="0"/><stop offset=".1" stop-color="#474747"/><stop offset=".9" stop-color="#474747"/><stop offset="1" stop-color="#474747" stop-opacity="0"/></linearGradient><linearGradient id="e"><stop offset="0" stop-color="#fff" stop-opacity="0"/><stop offset=".108" stop-color="#fff" stop-opacity=".707"/><stop offset=".921" stop-color="#fff" stop-opacity=".707"/><stop offset="1" stop-color="#fff" stop-opacity="0"/></linearGradient><linearGradient id="j"><stop offset="0"/><stop offset="1" stop-opacity="0"/></linearGradient><linearGradient id="i"><stop offset="0" stop-color="#fff"/><stop offset="1" stop-color="#fff" stop-opacity="0"/></linearGradient><linearGradient id="g"><stop offset="0" stop-color="#fff"/><stop offset="1" stop-color="#fff" stop-opacity="0"/></linearGradient><linearGradient id="h"><stop offset="0" stop-color="#fff"/><stop offset="1" stop-color="#fff" stop-opacity="0"/></linearGradient><linearGradient id="f"><stop offset="0" stop-color="#d2d2d2"/><stop offset="1" stop-color="#dfdfdf"/></linearGradient><linearGradient y2="117.827" x2="15.343" y1="117.827" x1="1.642" gradientTransform="matrix(2.74017 0 0 .36494 31.378 -10.353)" gradientUnits="userSpaceOnUse" id="q" xlink:href="#c"/><linearGradient y2="372.578" x2="5.086" y1="372.578" x1=".612" gradientTransform="matrix(8.1686 0 0 .22121 31.378 -48.274)" gradientUnits="userSpaceOnUse" id="r" xlink:href="#d"/><linearGradient y2="372.578" x2="5.086" y1="372.578" x1=".612" gradientTransform="matrix(8.1686 0 0 .22862 31.378 -46.267)" gradientUnits="userSpaceOnUse" id="s" xlink:href="#d"/><linearGradient y2="117.827" x2="15.343" y1="117.827" x1="1.642" gradientTransform="matrix(2.74017 0 0 .14769 31.378 14.833)" gradientUnits="userSpaceOnUse" id="t" xlink:href="#e"/><linearGradient xlink:href="#f" id="u" gradientUnits="userSpaceOnUse" gradientTransform="translate(0 .404)" x1="24.35" y1="34.464" x2="23.234" y2="10.018"/><linearGradient xlink:href="#g" id="v" gradientUnits="userSpaceOnUse" gradientTransform="matrix(.95593 0 0 1 .87 0)" x1="27.325" y1="26.888" x2="22.312" y2="26.787"/><linearGradient xlink:href="#h" id="w" gradientUnits="userSpaceOnUse" gradientTransform="matrix(.95593 0 0 1 .87 0)" x1="27.325" y1="26.888" x2="22.312" y2="26.787"/><linearGradient xlink:href="#i" id="x" gradientUnits="userSpaceOnUse" gradientTransform="translate(2.707)" x1="16.364" y1="39.919" x2="16.364" y2="30.928"/><linearGradient xlink:href="#i" id="y" gradientUnits="userSpaceOnUse" gradientTransform="translate(4.707)" x1="16.364" y1="39.919" x2="16.364" y2="30.928"/><linearGradient xlink:href="#i" id="z" gradientUnits="userSpaceOnUse" gradientTransform="translate(6.707)" x1="16.364" y1="39.919" x2="16.364" y2="30.928"/><linearGradient xlink:href="#i" id="A" gradientUnits="userSpaceOnUse" gradientTransform="translate(8.707)" x1="16.364" y1="39.919" x2="16.364" y2="30.928"/><linearGradient xlink:href="#i" id="B" gradientUnits="userSpaceOnUse" gradientTransform="translate(10.707)" x1="16.364" y1="39.919" x2="16.364" y2="30.928"/><linearGradient xlink:href="#i" id="C" gradientUnits="userSpaceOnUse" gradientTransform="translate(12.707)" x1="16.364" y1="39.919" x2="16.364" y2="30.928"/><linearGradient xlink:href="#j" id="D" gradientUnits="userSpaceOnUse" gradientTransform="translate(1.616)" x1="16.364" y1="39.919" x2="16.364" y2="30.928"/><linearGradient xlink:href="#j" id="E" gradientUnits="userSpaceOnUse" gradientTransform="translate(3.616)" x1="16.364" y1="39.919" x2="16.364" y2="30.928"/><linearGradient xlink:href="#j" id="F" gradientUnits="userSpaceOnUse" gradientTransform="translate(5.616)" x1="16.364" y1="39.919" x2="16.364" y2="30.928"/><linearGradient xlink:href="#j" id="G" gradientUnits="userSpaceOnUse" gradientTransform="translate(7.616)" x1="16.364" y1="39.919" x2="16.364" y2="30.928"/><linearGradient xlink:href="#j" id="H" gradientUnits="userSpaceOnUse" gradientTransform="translate(9.616)" x1="16.364" y1="39.919" x2="16.364" y2="30.928"/><linearGradient xlink:href="#j" id="I" gradientUnits="userSpaceOnUse" gradientTransform="translate(11.616)" x1="16.364" y1="39.919" x2="16.364" y2="30.928"/><linearGradient id="k"><stop offset="0"/><stop offset="1" stop-opacity="0"/></linearGradient><linearGradient xlink:href="#l" id="J" gradientUnits="userSpaceOnUse" x1="27.366" y1="26.58" x2="31.336" y2="30.558" gradientTransform="translate(15.7 18.202) scale(.64866)"/><linearGradient id="l"><stop offset="0" stop-color="#8a8a8a"/><stop offset="1" stop-color="#484848"/></linearGradient><linearGradient xlink:href="#m" id="K" gradientUnits="userSpaceOnUse" gradientTransform="matrix(.8657 0 0 .83761 11.176 13.363)" x1="30.656" y1="34" x2="33.219" y2="31.063"/><linearGradient id="m"><stop offset="0" stop-color="#7d7d7d"/><stop offset=".5" stop-color="#b1b1b1"/><stop offset="1" stop-color="#686868"/></linearGradient><linearGradient xlink:href="#n" id="L" gradientUnits="userSpaceOnUse" x1="18.293" y1="13.602" x2="17.501" y2="25.743" gradientTransform="translate(13.478 14.195) scale(.80806)"/><linearGradient id="n"><stop offset="0" stop-color="#fff"/><stop offset=".5" stop-color="#fff" stop-opacity=".219"/><stop offset="1" stop-color="#fff"/></linearGradient><radialGradient xlink:href="#o" id="M" gradientUnits="userSpaceOnUse" cx="18.241" cy="21.818" fx="18.241" fy="21.818" r="8.309" gradientTransform="translate(11.663 12.819) scale(.90722)"/><linearGradient id="o"><stop offset="0" stop-color="#729fcf" stop-opacity=".208"/><stop offset="1" stop-color="#729fcf" stop-opacity=".676"/></linearGradient><linearGradient id="p"><stop offset="0" stop-color="#fff"/><stop offset="1" stop-color="#fff" stop-opacity=".248"/></linearGradient><radialGradient r="6.656" fy="13.078" fx="15.414" cy="13.078" cx="15.414" gradientTransform="matrix(1.68195 0 0 1.46085 -.555 5.916)" gradientUnits="userSpaceOnUse" id="N" xlink:href="#p"/></defs><g opacity=".634" color="#000"><path style="marker:none" fill="url(#q)" display="block" overflow="visible" d="M36.378 30.647h36.543v4H36.378z" transform="matrix(1.22718 0 0 .67295 -43.642 -1.869)"/><path style="marker:none" fill="url(#r)" display="block" overflow="visible" d="M36.378 33.649h36.543v.99H36.378z" transform="matrix(1.22718 0 0 .67295 -43.642 -1.869)"/><path style="marker:none" fill="url(#s)" display="block" overflow="visible" d="M36.378 30.301h36.543v1.023H36.378z" transform="matrix(1.22718 0 0 .67295 -43.642 -1.869)"/><path style="marker:none" fill="url(#t)" display="block" overflow="visible" d="M36.378 31.425h36.543v1.619H36.378z" transform="matrix(1.22718 0 0 .67295 -43.642 -1.869)"/></g><path style="marker:none" d="M35.608 19.985a1.95 1.95 0 1 1-3.9 0 1.95 1.95 0 1 1 3.9 0z" color="#000" fill="#eaeaea" fill-rule="evenodd" stroke="#8a8a8a" stroke-width=".975" overflow="visible"/><path transform="matrix(.97655 0 0 .97534 .037 -2.978)" d="M12.467 7.998v33.537h21.962V7.795l-4.04-4.242H16.304l-3.838 4.445z" fill="url(#u)" fill-rule="evenodd" stroke="#5e5e5e" stroke-width=".999" stroke-linecap="round" stroke-linejoin="round"/><path d="M16.159.975l-3.46 4.874H33.17l-3.749-4.73L16.16.974z" fill="#fff" fill-opacity=".655" fill-rule="evenodd"/><path transform="matrix(.9998 0 0 .91912 -.825 -2.58)" style="marker:none" opacity=".349" color="#000" fill="#fff" fill-rule="evenodd" stroke="#fff" stroke-width="1.017" overflow="visible" d="M16.451 11.291h15.601v4.243H16.451z"/><path d="M13.465 8.622v31.781h19.823V8.44l-3.671-3.855H16.952l-3.487 4.038z" transform="matrix(.9836 0 0 .9798 -.058 -3.03)" stroke-width=".993" stroke="#fff" fill="none"/><path transform="matrix(.98408 0 0 .77343 -.701 2.251)" style="marker:none" opacity=".526" color="#000" fill="url(#v)" fill-rule="evenodd" stroke="url(#w)" stroke-width="1.117" overflow="visible" d="M21.542 23.559h10.897v5.042H21.542z"/><path transform="matrix(1.0263 0 0 .91912 -1.307 -1.571)" style="marker:none" color="#000" fill="#c8c8c8" fill-rule="evenodd" stroke="#acacac" stroke-width="1.004" overflow="visible" d="M20.771 23.453H31.22v4.243H20.771z"/><path transform="matrix(.9998 0 0 .91912 -.825 -2.245)" style="marker:none" opacity=".349" color="#000" fill="#fff" fill-rule="evenodd" stroke="#fff" stroke-width="1.017" overflow="visible" d="M16.451 17.291h15.601v4.243H16.451z"/><path transform="matrix(.98779 0 0 .91912 -.123 -1.896)" style="marker:none" color="#000" fill="#c8c8c8" fill-rule="evenodd" stroke="#acacac" stroke-width="1.023" overflow="visible" d="M15.447 16.382h15.791v4.243H15.447z"/><path transform="matrix(.98779 0 0 .91912 -.123 -2.231)" style="marker:none" color="#000" fill="#c8c8c8" fill-rule="evenodd" stroke="#acacac" stroke-width="1.023" overflow="visible" d="M15.447 10.382h15.791v4.243H15.447z"/><g color="#000" fill-rule="evenodd"><path d="M18.06 22.421a1.463 1.463 0 0 1-1.462 1.463 1.463 1.463 0 0 1-1.462-1.463 1.463 1.463 0 0 1 1.462-1.462 1.463 1.463 0 0 1 1.462 1.462z" style="marker:none" fill="#c8c8c8" stroke="#979797" stroke-width=".97505424" overflow="visible"/><path d="M16.554 22.114a.44.44 0 0 1-.44.44.44.44 0 0 1-.44-.44.44.44 0 0 1 .44-.44.44.44 0 0 1 .44.44z" style="marker:none" fill="#fff" overflow="visible"/></g><path transform="translate(.142 -2.454) scale(.96508)" style="marker:none" color="#000" fill="url(#x)" fill-rule="evenodd" overflow="visible" d="M19.072 29.817h1.01v10.102h-1.01z"/><path transform="translate(.162 -2.454) scale(.96508)" style="marker:none" color="#000" fill="url(#y)" fill-rule="evenodd" overflow="visible" d="M21.072 29.817h1.01v10.102h-1.01z"/><path transform="translate(.181 -2.454) scale(.96508)" style="marker:none" color="#000" fill="url(#z)" fill-rule="evenodd" overflow="visible" d="M23.072 29.817h1.01v10.102h-1.01z"/><path transform="translate(.201 -2.454) scale(.96508)" style="marker:none" color="#000" fill="url(#A)" fill-rule="evenodd" overflow="visible" d="M25.072 29.817h1.01v10.102h-1.01z"/><path transform="translate(.22 -2.454) scale(.96508)" style="marker:none" color="#000" fill="url(#B)" fill-rule="evenodd" overflow="visible" d="M27.072 29.817h1.01v10.102h-1.01z"/><path transform="translate(.24 -2.454) scale(.96508)" style="marker:none" opacity=".543" color="#000" fill="url(#C)" fill-rule="evenodd" overflow="visible" d="M29.072 29.817h1.01v10.102h-1.01z"/><path transform="translate(.22 -2.454) scale(.96508)" style="marker:none" opacity=".16" color="#000" fill="url(#D)" fill-rule="evenodd" overflow="visible" d="M17.981 29.817h1.01v10.102h-1.01z"/><path transform="translate(.24 -2.454) scale(.96508)" style="marker:none" opacity=".291" color="#000" fill="url(#E)" fill-rule="evenodd" overflow="visible" d="M19.981 29.817h1.01v10.102h-1.01z"/><path transform="translate(.26 -2.454) scale(.96508)" style="marker:none" opacity=".291" color="#000" fill="url(#F)" fill-rule="evenodd" overflow="visible" d="M21.981 29.817h1.01v10.102h-1.01z"/><path transform="translate(.279 -2.454) scale(.96508)" style="marker:none" opacity=".291" color="#000" fill="url(#G)" fill-rule="evenodd" overflow="visible" d="M23.981 29.817h1.01v10.102h-1.01z"/><path transform="translate(.298 -2.454) scale(.96508)" style="marker:none" opacity=".291" color="#000" fill="url(#H)" fill-rule="evenodd" overflow="visible" d="M25.981 29.817h1.01v10.102h-1.01z"/><path transform="translate(.318 -2.454) scale(.96508)" style="marker:none" opacity=".229" color="#000" fill="url(#I)" fill-rule="evenodd" overflow="visible" d="M27.981 29.817h1.01v10.102h-1.01z"/><path overflow="visible" stroke-miterlimit="10" style="marker:none" d="M27.783 20.241c-5.28 0-9.564 4.285-9.564 9.564 0 5.28 4.284 9.565 9.564 9.565 2.258 0 4.249-.898 5.886-2.207-.133.653-.051 1.32.49 1.79l7.112 6.18a1.908 1.908 0 0 0 2.698-.196 1.908 1.908 0 0 0-.196-2.698l-7.112-6.18c-.436-.378-.969-.49-1.496-.417 1.288-1.63 2.182-3.599 2.182-5.837 0-5.28-4.284-9.564-9.564-9.564zm-.05.796c4.957 0 8.623 3.106 8.623 8.622 0 5.627-3.773 8.621-8.622 8.621-4.737 0-8.622-3.553-8.622-8.621 0-5.18 3.778-8.622 8.622-8.622z" color="#000" fill="#dcdcdc" fill-rule="evenodd" stroke="url(#J)" stroke-width="1.95" stroke-linecap="round"/><path overflow="visible" d="M27.767 20.2c-5.297 0-9.596 4.299-9.596 9.596 0 5.296 4.3 9.594 9.596 9.594 2.264 0 4.263-.9 5.905-2.213-.134.655-.05 1.324.492 1.795l7.135 6.2a1.914 1.914 0 0 0 2.706-.197 1.914 1.914 0 0 0-.197-2.706l-7.135-6.2c-.436-.38-.97-.492-1.5-.418 1.293-1.635 2.189-3.611 2.189-5.855 0-5.297-4.299-9.596-9.595-9.596zm-.05 2.067a7.384 7.384 0 0 1 7.382 7.381 7.384 7.384 0 0 1-7.381 7.38 7.384 7.384 0 0 1-7.381-7.38 7.384 7.384 0 0 1 7.38-7.381z" style="marker:none" color="#000" fill="#dcdcdc" fill-rule="evenodd"/><path overflow="visible" d="M41.327 45.172c-.311-1.474.906-3.121 2.324-3.106l-6.98-6.006c-1.91-.037-2.769 1.475-2.45 2.984z" style="marker:none" color="#000" fill="url(#K)" fill-rule="evenodd"/><path overflow="visible" stroke-miterlimit="10" d="M36.549 29.484a8.928 8.928 0 0 1-8.93 8.929 8.928 8.928 0 0 1-8.926-8.93 8.928 8.928 0 0 1 8.927-8.927 8.928 8.928 0 0 1 8.928 8.928z" style="marker:none" color="#000" fill="none" stroke="url(#L)" stroke-width=".975" stroke-linecap="round"/><rect overflow="visible" stroke-miterlimit="10" transform="matrix(.75299 .65804 -.6489 .76087 0 0)" ry="1.84" rx="2.083" y="3.466" x="49.947" height="2.88" width="12.356" style="marker:none" color="#000" opacity=".433" fill="none" stroke="#fff" stroke-width=".975" stroke-linecap="round"/><path stroke-miterlimit="10" d="M35.158 29.582a7.538 7.538 0 0 1-7.538 7.539 7.538 7.538 0 0 1-7.537-7.539 7.538 7.538 0 0 1 7.537-7.537 7.538 7.538 0 0 1 7.538 7.537z" style="marker:none" color="#000" fill="url(#M)" fill-rule="evenodd" stroke="#3063a3" stroke-width=".975" stroke-linecap="round"/><path overflow="visible" d="M27.478 23a6.111 6.111 0 0 0-6.114 6.113c0 .976.273 1.873.68 2.692.812.3 1.675.503 2.59.503 4.004 0 7.2-3.153 7.447-7.094C30.96 23.887 29.351 23 27.478 23z" style="marker:none" color="#000" opacity=".834" fill="url(#N)" fill-rule="evenodd"/></svg>