<?xml version="1.0" encoding="UTF-8"?>
<svg version="1.1" viewBox="0 0 32 32" width="32" height="32" xmlns="http://www.w3.org/2000/svg">
  <path d="m28.208 17.568c0.08-0.512 0.128-1.04 0.128-1.568s-0.048-1.056-0.128-1.568l3.488-2.64c0.304-0.24 0.4-0.672 0.192-1.024l-3.28-5.536c-0.208-0.352-0.64-0.496-1.008-0.352l-4.096 1.616c-0.848-0.64-1.776-1.168-2.784-1.584l-0.608-4.24c-0.08-0.368-0.416-0.672-0.832-0.672h-6.576c-0.416 0-0.752 0.304-0.816 0.672l-0.608 4.24c-1.008 0.416-1.936 0.944-2.784 1.584l-4.096-1.616c-0.368-0.128-0.8 0-1.008 0.352l-3.28 5.536c-0.208 0.352-0.112 0.784 0.192 1.024l3.472 2.656c-0.064 0.512-0.112 1.024-0.112 1.552s0.048 1.056 0.112 1.568l-3.472 2.64c-0.304 0.24-0.4 0.672-0.192 1.024l3.28 5.552c0.208 0.336 0.64 0.48 1.008 0.336l4.096-1.6c0.848 0.624 1.776 1.168 2.784 1.568l0.608 4.24c0.064 0.384 0.4 0.672 0.816 0.672h6.576c0.416 0 0.752-0.288 0.816-0.672l0.624-4.24c0.992-0.4 1.92-0.928 2.768-1.568l4.096 1.6c0.368 0.144 0.8 0 1.008-0.336l3.296-5.552c0.192-0.352 0.112-0.768-0.208-1.024zm-12.208 4.032c-3.184 0-5.76-2.496-5.76-5.6 0-3.088 2.576-5.6 5.76-5.6s5.744 2.512 5.744 5.6c0 3.104-2.56 5.6-5.744 5.6z"/>
</svg>
